<?xml version="1.0" encoding="UTF-8" standalone="no"?>
<!-- Created with Inkscape (http://www.inkscape.org/) -->

<svg
   xmlns:dc="http://purl.org/dc/elements/1.1/"
   xmlns:cc="http://creativecommons.org/ns#"
   xmlns:rdf="http://www.w3.org/1999/02/22-rdf-syntax-ns#"
   xmlns:svg="http://www.w3.org/2000/svg"
   xmlns="http://www.w3.org/2000/svg"
   xmlns:sodipodi="http://sodipodi.sourceforge.net/DTD/sodipodi-0.dtd"
   xmlns:inkscape="http://www.inkscape.org/namespaces/inkscape"
   width="64"
   height="64"
   viewBox="0 0 16.933333 16.933334"
   version="1.1"
   id="svg4553"
   inkscape:version="0.92.1 r15371"
   sodipodi:docname="snowy-1.svg">
  <defs
     id="defs4547">
    <marker
       inkscape:stockid="Arrow1Lstart"
       orient="auto"
       refY="0.0"
       refX="0.0"
       id="Arrow1Lstart"
       style="overflow:visible"
       inkscape:isstock="true">
      <path
         id="path6022"
         d="M 0.0,0.0 L 5.0,-5.0 L -12.5,0.0 L 5.0,5.0 L 0.0,0.0 z "
         style="fill-rule:evenodd;stroke:none;stroke-width:1pt;stroke-opacity:1;fill:#569fed;fill-opacity:1"
         transform="scale(0.8) translate(12.5,0)" />
    </marker>
    <inkscape:path-effect
       effect="spiro"
       id="path-effect6018"
       is_visible="true" />
    <inkscape:path-effect
       effect="spiro"
       id="path-effect5770"
       is_visible="true" />
    <inkscape:path-effect
       effect="spiro"
       id="path-effect5766"
       is_visible="true" />
    <filter
       id="blur"
       width="2"
       height="2">
      <feGaussianBlur
         in="SourceAlpha"
         stdDeviation="3"
         id="feGaussianBlur2" />
      <feOffset
         dx="0"
         dy="4"
         result="offsetblur"
         id="feOffset4" />
      <feComponentTransfer
         id="feComponentTransfer8">
        <feFuncA
           type="linear"
           slope="0.05"
           id="feFuncA6" />
      </feComponentTransfer>
      <feMerge
         id="feMerge14">
        <feMergeNode
           id="feMergeNode10" />
        <feMergeNode
           in="SourceGraphic"
           id="feMergeNode12" />
      </feMerge>
    </filter>
    <filter
       id="blur-1"
       width="2"
       height="2">
      <feGaussianBlur
         in="SourceAlpha"
         stdDeviation="3"
         id="feGaussianBlur2-3" />
      <feOffset
         dx="0"
         dy="4"
         result="offsetblur"
         id="feOffset4-7" />
      <feComponentTransfer
         id="feComponentTransfer8-4">
        <feFuncA
           type="linear"
           slope="0.05"
           id="feFuncA6-4" />
      </feComponentTransfer>
      <feMerge
         id="feMerge14-3">
        <feMergeNode
           id="feMergeNode10-0" />
        <feMergeNode
           in="SourceGraphic"
           id="feMergeNode12-6" />
      </feMerge>
    </filter>
    <filter
       id="blur-8"
       width="2"
       height="2">
      <feGaussianBlur
         in="SourceAlpha"
         stdDeviation="3"
         id="feGaussianBlur2-4" />
      <feOffset
         dx="0"
         dy="4"
         result="offsetblur"
         id="feOffset4-1" />
      <feComponentTransfer
         id="feComponentTransfer8-6">
        <feFuncA
           type="linear"
           slope="0.05"
           id="feFuncA6-5" />
      </feComponentTransfer>
      <feMerge
         id="feMerge14-1">
        <feMergeNode
           id="feMergeNode10-9" />
        <feMergeNode
           in="SourceGraphic"
           id="feMergeNode12-0" />
      </feMerge>
    </filter>
    <filter
       id="blur-9"
       width="2"
       height="2">
      <feGaussianBlur
         in="SourceAlpha"
         stdDeviation="3"
         id="feGaussianBlur2-0" />
      <feOffset
         dx="0"
         dy="4"
         result="offsetblur"
         id="feOffset4-3" />
      <feComponentTransfer
         id="feComponentTransfer8-1">
        <feFuncA
           type="linear"
           slope="0.05"
           id="feFuncA6-3" />
      </feComponentTransfer>
      <feMerge
         id="feMerge14-0">
        <feMergeNode
           id="feMergeNode10-2" />
        <feMergeNode
           in="SourceGraphic"
           id="feMergeNode12-1" />
      </feMerge>
    </filter>
    <filter
       id="blur-4"
       width="2"
       height="2">
      <feGaussianBlur
         in="SourceAlpha"
         stdDeviation="3"
         id="feGaussianBlur2-5" />
      <feOffset
         dx="0"
         dy="4"
         result="offsetblur"
         id="feOffset4-5" />
      <feComponentTransfer
         id="feComponentTransfer8-2">
        <feFuncA
           type="linear"
           slope="0.05"
           id="feFuncA6-7" />
      </feComponentTransfer>
      <feMerge
         id="feMerge14-08">
        <feMergeNode
           id="feMergeNode10-4" />
        <feMergeNode
           in="SourceGraphic"
           id="feMergeNode12-9" />
      </feMerge>
    </filter>
    <filter
       id="blur-2"
       width="2"
       height="2">
      <feGaussianBlur
         in="SourceAlpha"
         stdDeviation="3"
         id="feGaussianBlur2-01" />
      <feOffset
         dx="0"
         dy="4"
         result="offsetblur"
         id="feOffset4-9" />
      <feComponentTransfer
         id="feComponentTransfer8-8">
        <feFuncA
           type="linear"
           slope="0.05"
           id="feFuncA6-9" />
      </feComponentTransfer>
      <feMerge
         id="feMerge14-33">
        <feMergeNode
           id="feMergeNode10-48" />
        <feMergeNode
           in="SourceGraphic"
           id="feMergeNode12-7" />
      </feMerge>
    </filter>
    <filter
       id="blur-7"
       width="2"
       height="2">
      <feGaussianBlur
         in="SourceAlpha"
         stdDeviation="3"
         id="feGaussianBlur2-49" />
      <feOffset
         dx="0"
         dy="4"
         result="offsetblur"
         id="feOffset4-35" />
      <feComponentTransfer
         id="feComponentTransfer8-7">
        <feFuncA
           type="linear"
           slope="0.05"
           id="feFuncA6-8" />
      </feComponentTransfer>
      <feMerge
         id="feMerge14-6">
        <feMergeNode
           id="feMergeNode10-08" />
        <feMergeNode
           in="SourceGraphic"
           id="feMergeNode12-15" />
      </feMerge>
    </filter>
    <filter
       id="blur-7-7"
       width="2"
       height="2">
      <feGaussianBlur
         in="SourceAlpha"
         stdDeviation="3"
         id="feGaussianBlur2-49-0" />
      <feOffset
         dx="0"
         dy="4"
         result="offsetblur"
         id="feOffset4-35-3" />
      <feComponentTransfer
         id="feComponentTransfer8-7-6">
        <feFuncA
           type="linear"
           slope="0.05"
           id="feFuncA6-8-9" />
      </feComponentTransfer>
      <feMerge
         id="feMerge14-6-6">
        <feMergeNode
           id="feMergeNode10-08-4" />
        <feMergeNode
           in="SourceGraphic"
           id="feMergeNode12-15-1" />
      </feMerge>
    </filter>
    <filter
       id="blur-5"
       width="2"
       height="2">
      <feGaussianBlur
         in="SourceAlpha"
         stdDeviation="3"
         id="feGaussianBlur2-2" />
      <feOffset
         dx="0"
         dy="4"
         result="offsetblur"
         id="feOffset4-2" />
      <feComponentTransfer
         id="feComponentTransfer8-84">
        <feFuncA
           type="linear"
           slope="0.05"
           id="feFuncA6-6" />
      </feComponentTransfer>
      <feMerge
         id="feMerge14-61">
        <feMergeNode
           id="feMergeNode10-27" />
        <feMergeNode
           in="SourceGraphic"
           id="feMergeNode12-2" />
      </feMerge>
    </filter>
    <filter
       id="blur-5-5"
       width="2"
       height="2">
      <feGaussianBlur
         in="SourceAlpha"
         stdDeviation="3"
         id="feGaussianBlur2-2-6" />
      <feOffset
         dx="0"
         dy="4"
         result="offsetblur"
         id="feOffset4-2-0" />
      <feComponentTransfer
         id="feComponentTransfer8-84-4">
        <feFuncA
           type="linear"
           slope="0.05"
           id="feFuncA6-6-0" />
      </feComponentTransfer>
      <feMerge
         id="feMerge14-61-7">
        <feMergeNode
           id="feMergeNode10-27-7" />
        <feMergeNode
           in="SourceGraphic"
           id="feMergeNode12-2-3" />
      </feMerge>
    </filter>
  </defs>
  <sodipodi:namedview
     id="base"
     pagecolor="#ffffff"
     bordercolor="#666666"
     borderopacity="1.0"
     inkscape:pageopacity="0.0"
     inkscape:pageshadow="2"
     inkscape:zoom="6.4975284"
     inkscape:cx="38.568321"
     inkscape:cy="35.3945"
     inkscape:document-units="mm"
     inkscape:current-layer="layer1"
     showgrid="false"
     units="px"
     inkscape:window-width="958"
     inkscape:window-height="1008"
     inkscape:window-x="953"
     inkscape:window-y="0"
     inkscape:window-maximized="0" />
  <metadata
     id="metadata4550">
    <rdf:RDF>
      <cc:Work
         rdf:about="">
        <dc:format>image/svg+xml</dc:format>
        <dc:type
           rdf:resource="http://purl.org/dc/dcmitype/StillImage" />
        <dc:title></dc:title>
      </cc:Work>
    </rdf:RDF>
  </metadata>
  <g
     inkscape:label="Layer 1"
     inkscape:groupmode="layer"
     id="layer1"
     transform="translate(0,-280.06665)">
    <g
       style="filter:url(#blur-5)"
       id="g57"
       transform="matrix(0.26458333,0,0,0.26458333,4.6080735,284.5483)">
      <g
         class="am-weather-sun"
         id="g53">
        <g
           id="g23">
          <line
             style="fill:none;stroke:#ffa500;stroke-width:2;stroke-linecap:round"
             transform="translate(0,9)"
             x1="0"
             x2="0"
             y1="0"
             y2="3"
             id="line21" />
        </g>
        <g
           transform="rotate(45)"
           id="g27">
          <line
             style="fill:none;stroke:#ffa500;stroke-width:2;stroke-linecap:round"
             transform="translate(0,9)"
             x1="0"
             x2="0"
             y1="0"
             y2="3"
             id="line25" />
        </g>
        <g
           transform="rotate(90)"
           id="g31">
          <line
             style="fill:none;stroke:#ffa500;stroke-width:2;stroke-linecap:round"
             transform="translate(0,9)"
             x1="0"
             x2="0"
             y1="0"
             y2="3"
             id="line29" />
        </g>
        <g
           transform="rotate(135)"
           id="g35">
          <line
             style="fill:none;stroke:#ffa500;stroke-width:2;stroke-linecap:round"
             transform="translate(0,9)"
             x1="0"
             x2="0"
             y1="0"
             y2="3"
             id="line33" />
        </g>
        <g
           transform="scale(-1)"
           id="g39">
          <line
             style="fill:none;stroke:#ffa500;stroke-width:2;stroke-linecap:round"
             transform="translate(0,9)"
             x1="0"
             x2="0"
             y1="0"
             y2="3"
             id="line37" />
        </g>
        <g
           transform="rotate(-135)"
           id="g43">
          <line
             style="fill:none;stroke:#ffa500;stroke-width:2;stroke-linecap:round"
             transform="translate(0,9)"
             x1="0"
             x2="0"
             y1="0"
             y2="3"
             id="line41" />
        </g>
        <g
           transform="rotate(-90)"
           id="g47">
          <line
             style="fill:none;stroke:#ffa500;stroke-width:2;stroke-linecap:round"
             transform="translate(0,9)"
             x1="0"
             x2="0"
             y1="0"
             y2="3"
             id="line45" />
        </g>
        <g
           transform="rotate(-45)"
           id="g51">
          <line
             style="fill:none;stroke:#ffa500;stroke-width:2;stroke-linecap:round"
             transform="translate(0,9)"
             x1="0"
             x2="0"
             y1="0"
             y2="3"
             id="line49" />
        </g>
      </g>
      <circle
         style="fill:#ffa500;stroke:#ffa500;stroke-width:2"
         cx="0"
         cy="0"
         r="5"
         id="circle55" />
    </g>
    <g
       style="filter:url(#blur-5)"
       id="g61"
       transform="matrix(0.26458333,0,0,0.26458333,-0.53437842,277.63314)">
      <path
         style="fill:#57a0ee;stroke:#ffffff;stroke-width:1.5;stroke-linejoin:round"
         inkscape:connector-curvature="0"
         d="m 47.7,35.4 c 0,-4.6 -3.7,-8.2 -8.2,-8.2 -1,0 -1.9,0.2 -2.8,0.5 -0.3,-3.4 -3.1,-6.2 -6.6,-6.2 -3.7,0 -6.7,3 -6.7,6.7 0,0.8 0.2,1.6 0.4,2.3 -0.3,-0.1 -0.7,-0.1 -1,-0.1 -3.7,0 -6.7,3 -6.7,6.7 0,3.6 2.9,6.6 6.5,6.7 h 17.2 c 4.4,-0.5 7.9,-4 7.9,-8.4 z"
         id="path59" />
    </g>
    <g
       transform="matrix(0.01246221,0,0,0.01246222,3.9120092,288.43106)"
       id="Layer_2"
       style="fill:#569fed;fill-opacity:1">
      <polygon
         points="262.75,277.5 252.75,262 245.25,277.5 233.75,271 245.25,247.5 229.75,219.5 213.25,247 224.25,270.5 212.75,277.5 204.75,261 196.25,277.5 182.25,269 191.75,253.5 172.25,254 172.25,242 199.25,240 215.25,211.5 184.75,211 169.25,233.5 158.25,226 168.25,211.5 148.75,211.5 148.75,196.5 169.25,197.5 158.75,181 169.25,174 183.75,196.5 216.25,197 200.25,169 172.25,167 174.75,154 191.25,155.5 182.25,138.5 195.25,130.5 205.25,147 212.75,130.5 224.75,138.75 213.75,161.5 229.25,188.5 245.25,159.5 233.25,138 245.25,130.5 252.75,147 262.75,130.5 275.75,138.5 266.75,154 283.75,153.5 283.75,167.5 259.75,168 242.25,196 274.25,196 289.25,175 299.25,183 289.75,196 308.25,196 308.25,211.5 290.75,211.5 299.25,225 289.75,233.5 273.75,211.5 242.75,211.5 258.75,239.5 283.75,242.5 284.25,254.5 267.25,254.5 275.25,269 "
         id="polygon5"
         style="fill:#569fed;fill-opacity:1" />
    </g>
    <g
       transform="matrix(0.01246221,0,0,0.01246222,6.4288984,288.42483)"
       id="Layer_2-9"
       style="fill:#569fed;fill-opacity:1">
      <polygon
         points="213.25,247 224.25,270.5 212.75,277.5 204.75,261 196.25,277.5 182.25,269 191.75,253.5 172.25,254 172.25,242 199.25,240 215.25,211.5 184.75,211 169.25,233.5 158.25,226 168.25,211.5 148.75,211.5 148.75,196.5 169.25,197.5 158.75,181 169.25,174 183.75,196.5 216.25,197 200.25,169 172.25,167 174.75,154 191.25,155.5 182.25,138.5 195.25,130.5 205.25,147 212.75,130.5 224.75,138.75 213.75,161.5 229.25,188.5 245.25,159.5 233.25,138 245.25,130.5 252.75,147 262.75,130.5 275.75,138.5 266.75,154 283.75,153.5 283.75,167.5 259.75,168 242.25,196 274.25,196 289.25,175 299.25,183 289.75,196 308.25,196 308.25,211.5 290.75,211.5 299.25,225 289.75,233.5 273.75,211.5 242.75,211.5 258.75,239.5 283.75,242.5 284.25,254.5 267.25,254.5 275.25,269 262.75,277.5 252.75,262 245.25,277.5 233.75,271 245.25,247.5 229.75,219.5 "
         id="polygon5-8"
         style="fill:#569fed;fill-opacity:1" />
    </g>
  </g>
</svg>
